<svg width="60" height="50" viewBox="0 0 60 50" fill="none" xmlns="http://www.w3.org/2000/svg">
                    <path d="M27.2995 46.2717C39.3915 46.2717 49.194 36.5047 49.194 24.4565C49.194 12.4083 39.3915 2.6413 27.2995 2.6413C15.2074 2.6413 5.40491 12.4083 5.40491 24.4565C5.40491 36.5047 15.2074 46.2717 27.2995 46.2717Z" fill="#0B3D91"/>
                    <path d="M26.0067 7.07609C26.1422 7.07609 26.2521 6.96659 26.2521 6.83152C26.2521 6.69646 26.1422 6.58696 26.0067 6.58696C25.8711 6.58696 25.7612 6.69646 25.7612 6.83152C25.7612 6.96659 25.8711 7.07609 26.0067 7.07609Z" fill="white"/>
                    <path d="M28.5267 7.40218C28.6623 7.40218 28.7722 7.29268 28.7722 7.15761C28.7722 7.02254 28.6623 6.91305 28.5267 6.91305C28.3911 6.91305 28.2812 7.02254 28.2812 7.15761C28.2812 7.29268 28.3911 7.40218 28.5267 7.40218Z" fill="white"/>
                    <path d="M31.8321 11.837C31.9677 11.837 32.0776 11.7275 32.0776 11.5924C32.0776 11.4573 31.9677 11.3478 31.8321 11.3478C31.6966 11.3478 31.5867 11.4573 31.5867 11.5924C31.5867 11.7275 31.6966 11.837 31.8321 11.837Z" fill="white"/>
                    <path d="M13.7013 34.663C13.8368 34.663 13.9467 34.5536 13.9467 34.4185C13.9467 34.2834 13.8368 34.1739 13.7013 34.1739C13.5657 34.1739 13.4558 34.2834 13.4558 34.4185C13.4558 34.5536 13.5657 34.663 13.7013 34.663Z" fill="white"/>
                    <path d="M14.3394 36.6196C14.475 36.6196 14.5849 36.5101 14.5849 36.375C14.5849 36.2399 14.475 36.1304 14.3394 36.1304C14.2039 36.1304 14.094 36.2399 14.094 36.375C14.094 36.5101 14.2039 36.6196 14.3394 36.6196Z" fill="white"/>
                    <path d="M11.2958 34.8951C11.3973 34.8951 11.4796 34.8131 11.4796 34.712C11.4796 34.6108 11.3973 34.5288 11.2958 34.5288C11.1942 34.5288 11.1119 34.6108 11.1119 34.712C11.1119 34.8131 11.1942 34.8951 11.2958 34.8951Z" fill="white"/>
                    <path d="M21.2776 38.7391C21.3794 38.7391 21.462 38.6569 21.462 38.5554C21.462 38.454 21.3794 38.3717 21.2776 38.3717C21.1758 38.3717 21.0933 38.454 21.0933 38.5554C21.0933 38.6569 21.1758 38.7391 21.2776 38.7391Z" fill="white"/>
                    <path d="M36.9332 35.4984C37.0347 35.4984 37.117 35.4164 37.117 35.3152C37.117 35.2141 37.0347 35.1321 36.9332 35.1321C36.8317 35.1321 36.7494 35.2141 36.7494 35.3152C36.7494 35.4164 36.8317 35.4984 36.9332 35.4984Z" fill="white"/>
                    <path d="M41.4829 30.575C41.5847 30.575 41.6673 30.4928 41.6673 30.3913C41.6673 30.2899 41.5847 30.2076 41.4829 30.2076C41.3811 30.2076 41.2985 30.2899 41.2985 30.3913C41.2985 30.4928 41.3811 30.575 41.4829 30.575Z" fill="white"/>
                    <path d="M19.1831 13.206C19.2846 13.206 19.3669 13.124 19.3669 13.0228C19.3669 12.9217 19.2846 12.8397 19.1831 12.8397C19.0816 12.8397 18.9993 12.9217 18.9993 13.0228C18.9993 13.124 19.0816 13.206 19.1831 13.206Z" fill="white"/>
                    <path d="M24.1903 9.54185C24.2919 9.54185 24.3742 9.45985 24.3742 9.3587C24.3742 9.25754 24.2919 9.17554 24.1903 9.17554C24.0888 9.17554 24.0065 9.25754 24.0065 9.3587C24.0065 9.45985 24.0888 9.54185 24.1903 9.54185Z" fill="white"/>
                    <path d="M23.6465 9.18315C23.748 9.18315 23.8303 9.10115 23.8303 9C23.8303 8.89885 23.748 8.81685 23.6465 8.81685C23.545 8.81685 23.4627 8.89885 23.4627 9C23.4627 9.10115 23.545 9.18315 23.6465 9.18315Z" fill="white"/>
                    <path d="M23.1556 8.82446C23.2571 8.82446 23.3394 8.74246 23.3394 8.6413C23.3394 8.54015 23.2571 8.45815 23.1556 8.45815C23.0541 8.45815 22.9718 8.54015 22.9718 8.6413C22.9718 8.74246 23.0541 8.82446 23.1556 8.82446Z" fill="white"/>
                    <path d="M19.9685 14.1522C20.07 14.1522 20.1523 14.0702 20.1523 13.969C20.1523 13.8679 20.07 13.7859 19.9685 13.7859C19.867 13.7859 19.7847 13.8679 19.7847 13.969C19.7847 14.0702 19.867 14.1522 19.9685 14.1522Z" fill="white"/>
                    <path d="M27.3442 4.61794C27.4457 4.61794 27.528 4.53594 27.528 4.43478C27.528 4.33363 27.4457 4.25163 27.3442 4.25163C27.2426 4.25163 27.1603 4.33363 27.1603 4.43478C27.1603 4.53594 27.2426 4.61794 27.3442 4.61794Z" fill="white"/>
                    <path d="M28.5556 9.90054C28.6571 9.90054 28.7394 9.81854 28.7394 9.71739C28.7394 9.61624 28.6571 9.53424 28.5556 9.53424C28.4541 9.53424 28.3718 9.61624 28.3718 9.71739C28.3718 9.81854 28.4541 9.90054 28.5556 9.90054Z" fill="white"/>
                    <path d="M26.6449 8.86902C26.7464 8.86902 26.8287 8.78702 26.8287 8.68587C26.8287 8.58472 26.7464 8.50272 26.6449 8.50272C26.5434 8.50272 26.4611 8.58472 26.4611 8.68587C26.4611 8.78702 26.5434 8.86902 26.6449 8.86902Z" fill="white"/>
                    <path d="M23.3722 10.2717C23.4737 10.2717 23.556 10.1897 23.556 10.0886C23.556 9.98744 23.4737 9.90544 23.3722 9.90544C23.2707 9.90544 23.1884 9.98744 23.1884 10.0886C23.1884 10.1897 23.2707 10.2717 23.3722 10.2717Z" fill="white"/>
                    <path d="M37.8049 40.337C37.9064 40.337 37.9887 40.255 37.9887 40.1538C37.9887 40.0527 37.9064 39.9707 37.8049 39.9707C37.7034 39.9707 37.6211 40.0527 37.6211 40.1538C37.6211 40.255 37.7034 40.337 37.8049 40.337Z" fill="white"/>
                    <path d="M13.3903 35.8413C13.4921 35.8413 13.5747 35.7591 13.5747 35.6576C13.5747 35.5562 13.4921 35.4739 13.3903 35.4739C13.2885 35.4739 13.2059 35.5562 13.2059 35.6576C13.2059 35.7591 13.2885 35.8413 13.3903 35.8413Z" fill="white"/>
                    <path d="M26.1867 38.2054C26.2885 38.2054 26.371 38.1232 26.371 38.0217C26.371 37.9203 26.2885 37.838 26.1867 37.838C26.0849 37.838 26.0023 37.9203 26.0023 38.0217C26.0023 38.1232 26.0849 38.2054 26.1867 38.2054Z" fill="white"/>
                    <path d="M17.1987 35.6946C17.3005 35.6946 17.3831 35.6123 17.3831 35.5109C17.3831 35.4094 17.3005 35.3272 17.1987 35.3272C17.0969 35.3272 17.0143 35.4094 17.0143 35.5109C17.0143 35.6123 17.0969 35.6946 17.1987 35.6946Z" fill="white"/>
                    <path d="M18.7903 38.2832C18.8921 38.2832 18.9747 38.2009 18.9747 38.0995C18.9747 37.998 18.8921 37.9158 18.7903 37.9158C18.6885 37.9158 18.606 37.998 18.606 38.0995C18.606 38.2009 18.6885 38.2832 18.7903 38.2832Z" fill="white"/>
                    <path d="M30.5067 36.6522C30.6082 36.6522 30.6905 36.5702 30.6905 36.469C30.6905 36.3679 30.6082 36.2859 30.5067 36.2859C30.4052 36.2859 30.3229 36.3679 30.3229 36.469C30.3229 36.5702 30.4052 36.6522 30.5067 36.6522Z" fill="white"/>
                    <path d="M36.966 33.0201C37.0675 33.0201 37.1498 32.9381 37.1498 32.837C37.1498 32.7358 37.0675 32.6538 36.966 32.6538C36.8645 32.6538 36.7822 32.7358 36.7822 32.837C36.7822 32.9381 36.8645 33.0201 36.966 33.0201Z" fill="white"/>
                    <path d="M41.8631 35.2495C41.9646 35.2495 42.0469 35.1675 42.0469 35.0663C42.0469 34.9652 41.9646 34.8832 41.8631 34.8832C41.7616 34.8832 41.6793 34.9652 41.6793 35.0663C41.6793 35.1675 41.7616 35.2495 41.8631 35.2495Z" fill="white"/>
                    <path d="M43.5321 36.3136C43.6337 36.3136 43.716 36.2316 43.716 36.1304C43.716 36.0293 43.6337 35.9473 43.5321 35.9473C43.4306 35.9473 43.3483 36.0293 43.3483 36.1304C43.3483 36.2316 43.4306 36.3136 43.5321 36.3136Z" fill="white"/>
                    <path d="M43.8065 33.4114C43.908 33.4114 43.9903 33.3294 43.9903 33.2283C43.9903 33.1271 43.908 33.0451 43.8065 33.0451C43.705 33.0451 43.6227 33.1271 43.6227 33.2283C43.6227 33.3294 43.705 33.4114 43.8065 33.4114Z" fill="white"/>
                    <path d="M19.4569 29.3027C19.5584 29.3027 19.6407 29.2207 19.6407 29.1196C19.6407 29.0184 19.5584 28.9364 19.4569 28.9364C19.3554 28.9364 19.2731 29.0184 19.2731 29.1196C19.2731 29.2207 19.3554 29.3027 19.4569 29.3027Z" fill="white"/>
                    <path d="M19.5267 33.5707C19.6623 33.5707 19.7722 33.4612 19.7722 33.3261C19.7722 33.191 19.6623 33.0815 19.5267 33.0815C19.3911 33.0815 19.2812 33.191 19.2812 33.3261C19.2812 33.4612 19.3911 33.5707 19.5267 33.5707Z" fill="white"/>
                    <path d="M20.9994 36.6685C21.135 36.6685 21.2449 36.559 21.2449 36.4239C21.2449 36.2888 21.135 36.1794 20.9994 36.1794C20.8639 36.1794 20.754 36.2888 20.754 36.4239C20.754 36.559 20.8639 36.6685 20.9994 36.6685Z" fill="white"/>
                    <path d="M38.6394 33.4402C38.775 33.4402 38.8849 33.3307 38.8849 33.1957C38.8849 33.0606 38.775 32.9511 38.6394 32.9511C38.5039 32.9511 38.394 33.0606 38.394 33.1957C38.394 33.3307 38.5039 33.4402 38.6394 33.4402Z" fill="white"/>
                    <path d="M44.9885 33.0815C45.1241 33.0815 45.234 32.972 45.234 32.837C45.234 32.7019 45.1241 32.5924 44.9885 32.5924C44.8529 32.5924 44.743 32.7019 44.743 32.837C44.743 32.972 44.8529 33.0815 44.9885 33.0815Z" fill="white"/>
                    <path d="M41.8467 31.7446C41.9823 31.7446 42.0922 31.6351 42.0922 31.5C42.0922 31.3649 41.9823 31.2554 41.8467 31.2554C41.7112 31.2554 41.6013 31.3649 41.6013 31.5C41.6013 31.6351 41.7112 31.7446 41.8467 31.7446Z" fill="white"/>
                    <path d="M38.6394 31.875C38.775 31.875 38.8849 31.7655 38.8849 31.6304C38.8849 31.4954 38.775 31.3859 38.6394 31.3859C38.5039 31.3859 38.394 31.4954 38.394 31.6304C38.394 31.7655 38.5039 31.875 38.6394 31.875Z" fill="white"/>
                    <path d="M32.0236 6.67826L32.634 6.62011L32.0247 6.58587C32.0056 6.46848 31.9112 6.37663 31.7923 6.36142L31.734 5.75598L31.6991 6.36631C31.5889 6.39076 31.5043 6.48261 31.4907 6.59674L30.8667 6.65326L31.4951 6.68696C31.518 6.79185 31.6031 6.87392 31.71 6.89348L31.7667 7.51739L31.8 6.89457C31.9129 6.87555 32.0023 6.78913 32.0236 6.67826Z" fill="white"/>
                    <path d="M21.7222 13.4489L22.3325 13.3908L21.7232 13.3565C21.7047 13.2391 21.6098 13.1473 21.4909 13.1321L21.4325 12.5266L21.3982 13.137C21.2874 13.1614 21.2029 13.2533 21.1892 13.3674L20.5652 13.4239L21.1936 13.4576C21.2165 13.5625 21.3016 13.6446 21.4085 13.6641L21.4652 14.288L21.4991 13.6652C21.612 13.6467 21.7014 13.5598 21.7222 13.4489Z" fill="white"/>
                    <path d="M44.5412 31.35L45.1516 31.2918L44.5423 31.2576C44.5238 31.1402 44.4289 31.0484 44.31 31.0332L44.2516 30.4277L44.2173 31.038C44.1071 31.0625 44.0225 31.1544 44.0089 31.2685L43.3849 31.325L44.0133 31.3587C44.0362 31.4636 44.1213 31.5457 44.2282 31.5652L44.2849 32.1891L44.3187 31.5663C44.4305 31.5478 44.52 31.4614 44.5412 31.35Z" fill="white"/>
                    <path d="M19.6603 40.7098L20.2707 40.6516L19.6614 40.6174C19.6423 40.5 19.548 40.4082 19.4291 40.3929L19.3707 39.788L19.3363 40.3978C19.2256 40.4223 19.1411 40.5141 19.1274 40.6283L18.5034 40.6848L19.1318 40.7185C19.1547 40.8234 19.2398 40.906 19.3467 40.925L19.4034 41.5489L19.4372 40.9261C19.5496 40.9076 19.6396 40.8207 19.6603 40.7098Z" fill="white"/>
                    <path d="M42.6022 36.1446L43.2125 36.0864L42.6033 36.0522C42.5847 35.9348 42.4898 35.8429 42.3709 35.8277L42.3125 35.2223L42.2782 35.8321C42.168 35.8565 42.0834 35.9484 42.0698 36.0625L41.4458 36.119L42.0742 36.1527C42.0971 36.2576 42.1822 36.3397 42.2891 36.3592L42.3458 36.9832L42.3796 36.3603C42.4914 36.3424 42.5814 36.2554 42.6022 36.1446Z" fill="white"/>
                    <path d="M32.4916 19.231C29.946 20.2168 27.4631 21.0967 25.368 21.75C21.1107 23.0783 9.46251 26.6739 2.42615 31.2065L3.01524 31.4348C7.30251 29.0217 10.0892 28.2636 12.768 27.4239C15.6807 26.5109 25.0969 24.3152 29.3607 23.1196C30.8012 22.7158 32.4883 22.187 34.2752 21.5435C33.8596 20.9658 33.4211 20.3864 32.9596 19.8082C32.8052 19.613 32.6487 19.4207 32.4916 19.231ZM35.6018 23.5022C34.9854 23.9169 34.4689 24.2478 34.1072 24.4565C32.0127 25.663 21.8012 32.6087 19.4781 34.2065C17.1551 35.8043 10.7072 41.8696 8.80906 43.6304L8.7436 44.3473C14.8636 38.869 16.7836 37.5179 19.2163 35.6739C22.2272 33.3913 28.4558 29.1685 30.5727 27.8152C32.5963 26.5217 34.4214 25.3321 36.0594 24.2435C36.0327 24.1989 36.006 24.1543 35.9792 24.1092C35.856 23.9076 35.73 23.7054 35.6018 23.5022ZM45.1685 13.4348C42.1871 15.1761 37.488 17.2777 32.9291 19.0609C33.0381 19.194 33.1467 19.3283 33.2547 19.4636C33.7641 20.1027 34.2447 20.7462 34.6969 21.3902C38.2805 20.075 42.2127 18.3098 45.3327 16.1734C43.8463 17.5766 38.9323 21.2359 35.9361 23.2755C36.0905 23.5261 36.24 23.7766 36.3845 24.0261C40.9238 20.9995 43.9783 18.7717 45.7581 17.2821C48.2127 15.2277 53.8091 10.6299 55.9363 4.46685C52.2049 9.19565 47.7932 11.9016 45.1685 13.4348Z" fill="#FC3D21"/>
                    <path d="M24.4821 29.8582C23.9994 29.2527 23.3318 28.4418 22.8305 27.813C22.1601 26.9723 21.54 26.1228 20.9716 25.2745C20.7861 25.3207 20.6012 25.3668 20.4163 25.413C21.1025 26.4799 21.8645 27.5451 22.6947 28.5864C23.3012 29.3473 23.8527 29.9598 24.1352 30.3408C24.1925 30.4179 24.306 30.5886 24.4592 30.8158C24.636 30.6962 24.8143 30.5755 24.9943 30.4538C24.8203 30.2652 24.6485 30.0668 24.4821 29.8582ZM28.0058 33.0451C27.6092 32.6712 26.6476 32.0467 25.6467 31.1098C25.4258 31.2609 25.2027 31.4141 24.979 31.5685C25.6254 32.4761 26.5058 33.5908 27.1952 33.9158C28.2338 34.406 28.5136 33.5245 28.0058 33.0451ZM33.2547 19.4636C27.5318 12.2864 20.5407 8.34348 17.5265 10.7299C15.1854 12.5832 16.1465 17.9995 19.3734 23.6891C19.5403 23.6321 19.7056 23.5761 19.8692 23.5207C16.6123 17.9772 15.721 12.8255 17.929 11.0772C20.7038 8.88044 27.4036 12.8386 32.9607 19.8076C34.111 21.25 35.1223 22.6978 35.9787 24.1092C39.258 29.5168 40.2643 34.4071 37.9985 36.4033C37.3052 37.0141 35.1867 37.2538 32.4114 36.0092C32.3727 36.0576 32.4349 36.1886 32.4834 36.2207C34.879 37.1804 37.1738 37.5462 38.3323 36.6294C41.1163 34.425 38.9776 26.6408 33.2547 19.4636Z" fill="white"/>
                    <path d="M39 20H47.5792V21.3658H40.6655V23.0761H46.8382V24.4419H40.6655V26.1522H47.5792V27.5179H39V20Z" fill="white"/>
                    <path d="M29 20H30.6655L33.2896 23.8152L35.9138 20H37.5792V28.1766H35.9138V23.1087L33.2896 26.9239L30.6655 23.1087V28.1766H29V20Z" fill="white"/>
                    <path d="M23.2896 20C20.7896 20 19 21.7891 19 24.0881C19 26.387 20.7896 28.1766 23.2896 28.1766C25.7896 28.1766 27.5792 26.387 27.5792 24.0881C27.5792 21.7891 25.7896 20 23.2896 20ZM23.2896 26.8109C21.7896 26.8109 20.6655 25.587 20.6655 24.0881C20.6655 22.5891 21.7896 21.3658 23.2896 21.3658C24.7896 21.3658 25.9138 22.5891 25.9138 24.0881C25.9138 25.587 24.7896 26.8109 23.2896 26.8109Z" fill="white"/>
                    <path d="M9 20H10.6655V23.5761H15.9138V20H17.5792V28.1766H15.9138V24.5H10.6655V28.1766H9V20Z" fill="white"/>
                </svg>